:SAMPLES-PER-SECOND 30
:FULLY-SPECIFIED
:DEGREES
1336
root  -66.2333 38.8278 -11.8358 -2.78123 19.2089 -1.86279
RightUpLeg  -20.7212 -4.43008 8.09934
RightLeg  17.9005 -4.13352 -1.48014
RightFoot  1.68667 0.880549 -7.60028
RightToes  -8.14909e-010 0 -3.6325e-017
Spine  3.40183 -3.25921 2.25605
Spine1  5.64599 -4.76484 5.3863
HEad  -31.2126 -55.3236 14.5796
LeftShoulder1  0.339708 2.60113 -31.5757
LeftArm  3.68328 8.13061 -47.5906
LeftForeArm  23.5264 -16.594 -6.33983
LeftHand  0.0192557 6.80125 4.34762
RightShoulder  -0.831343 -5.78068 29.8824
RightArm  24.6427 12.3172 48.7232
RightForeArm  -2.37041 15.9882 7.05533
RightHand  -0.455374 9.98432 -3.83333
LeftUpLeg  14.5019 10.5402 -8.35534
LeftLeg  13.9148 5.08532 0.26639
LeftFoot  -16.8102 0.322965 4.6188
LeftToes  1.648e-009 -9.21574e-011 2.55256e-011
1337
root  -65.626 38.9196 -11.1011 -2.73064 20.4631 -2.07758
RightUpLeg  -20.3671 -4.50799 7.48144
RightLeg  19.8535 -5.04198 -2.03967
RightFoot  0.351533 0.851991 -8.27474
RightToes  -8.14909e-010 0 -3.6325e-017
Spine  3.76264 -3.76463 2.26058
Spine1  5.08087 -5.47727 6.96031
HEad  -31.1722 -55.9885 14.1844
LeftShoulder1  0.275099 2.78097 -32.014
LeftArm  0.979375 8.58443 -46.1775
LeftForeArm  26.6338 -13.9341 -7.37073
LeftHand  0.0333827 7.97765 3.17729
RightShoulder  -0.785938 -5.67154 29.5912
RightArm  18.1698 10.6889 48.7532
RightForeArm  4.32548 10.8481 8.12251
RightHand  -0.404256 9.23808 -3.59193
LeftUpLeg  13.2672 15.3371 -6.06276
LeftLeg  19.4976 -2.47501 -0.534827
LeftFoot  -14.3086 0.11956 1.35914
LeftToes  1.648e-009 -9.21574e-011 2.55256e-011
1338
root  -65.0624 38.9932 -10.4228 -2.49901 21.1142 -2.74567
RightUpLeg  -19.9873 -5.31204 7.52426
RightLeg  20.8777 -4.87482 -2.0217
RightFoot  -0.917726 0.7605 -8.37003
RightToes  -8.14909e-010 0 -3.6325e-017
Spine  3.51101 -3.67046 3.94555
Spine1  4.81399 -5.13382 6.72561
HEad  -31.2352 -57.0515 14.5236
LeftShoulder1  0.427079 2.35921 -31.1942
LeftArm  -2.85887 8.62551 -45.8019
LeftForeArm  31.5275 -10.8986 -7.97835
LeftHand  0.0280705 8.47839 2.66279
RightShoulder  -0.934964 -6.043 30.2472
RightArm  13.6303 8.46111 47.9114
RightForeArm  7.86538 7.16036 7.69292
RightHand  -0.334884 8.2463 -3.22418
LeftUpLeg  9.91628 17.1495 -3.72198
LeftLeg  27.7318 -6.46512 -3.33056
LeftFoot  -10.2703 0.112882 -3.25069
LeftToes  1.648e-009 -9.21574e-011 2.55256e-011
1339
root  -64.5575 39.0063 -9.80838 -2.45638 21.6529 -3.65143
RightUpLeg  -19.5697 -5.84413 7.77434
RightLeg  21.8361 -4.84341 -1.96715
RightFoot  -2.38665 0.593765 -7.77272
RightToes  -8.14909e-010 0 -3.6325e-017
Spine  3.71165 -3.6827 5.29239
Spine1  4.42261 -5.01395 7.12473
HEad  -31.3091 -57.5226 14.4143
LeftShoulder1  0.439799 2.31106 -30.7707
LeftArm  -5.9082 8.92973 -45.2326
LeftForeArm  34.7923 -9.13432 -7.61324
LeftHand  -0.00811609 8.72924 1.26675
RightShoulder  -0.913535 -5.99148 30.1253
RightArm  11.4024 5.95611 47.4656
RightForeArm  7.81148 4.54251 6.85713
RightHand  -0.305908 7.33834 -3.14682
LeftUpLeg  5.42266 18.1154 -1.42114
LeftLeg  37.1318 -8.44519 -6.46543
LeftFoot  -4.37341 0.602445 -9.5456
LeftToes  1.648e-009 -9.21574e-011 2.55256e-011
1340
root  -64.1255 38.9859 -9.253 -2.89406 22.3353 -4.74207
RightUpLeg  -18.7984 -5.87189 8.16661
RightLeg  22.7205 -5.54014 -2.11119
RightFoot  -3.73795 0.472889 -7.48497
RightToes  -8.14909e-010 0 -3.6325e-017
Spine  4.13116 -3.87939 6.07505
Spine1  4.49609 -5.2195 8.13795
HEad  -31.7749 -57.3591 14.6574
LeftShoulder1  0.428425 2.34 -30.7514
LeftArm  -7.19865 9.37857 -44.2555
LeftForeArm  34.6577 -8.8439 -7.15595
LeftHand  0.0110337 9.02547 1.87948
RightShoulder  -0.973166 -6.11731 30.6626
RightArm  11.0062 4.62431 46.3723
RightForeArm  8.0848 2.73929 6.68112
RightHand  -0.289417 6.75694 -3.1065
LeftUpLeg  0.492566 18.1076 0.888644
LeftLeg  46.6212 -8.88744 -9.50817
LeftFoot  2.91567 1.58548 -12.7469
LeftToes  1.648e-009 -9.21574e-011 2.55256e-011
1341
root  -63.6709 38.9487 -8.76997 -3.71083 22.7255 -5.43842
RightUpLeg  -17.6457 -6.37052 8.12068
RightLeg  23.7906 -5.69612 -2.01154
RightFoot  -5.19465 0.358069 -7.30063
RightToes  -8.14909e-010 0 -3.6325e-017
Spine  5.08784 -4.10015 6.44593
Spine1  4.70496 -5.42095 9.32368
HEad  -31.8211 -57.3685 14.8255
LeftShoulder1  0.360746 2.54211 -31.405
LeftArm  -7.07299 9.69505 -42.6902
LeftForeArm  33.0032 -9.5113 -7.00554
LeftHand  0.0464125 8.50899 3.19311
RightShoulder  -0.940551 -6.03104 30.6261
RightArm  11.4352 3.32194 45.3934
RightForeArm  9.1157 2.35816 6.79792
RightHand  -0.243667 6.21846 -2.7706
LeftUpLeg  -3.60111 17.3462 2.4965
LeftLeg  53.8574 -7.8667 -10.949
LeftFoot  7.31639 2.35413 -14.5858
LeftToes  1.648e-009 -9.21574e-011 2.55256e-011
1342
root  -63.1481 39.0562 -8.23778 -4.1194 22.028 -5.4397
RightUpLeg  -15.8238 -6.37414 7.47444
RightLeg  23.5366 -5.12641 -1.55556
RightFoot  -6.07384 0.27364 -6.83313
RightToes  -8.14909e-010 0 -3.6325e-017
Spine  5.50778 -3.9841 7.19198
Spine1  4.85259 -4.95371 8.33111
HEad  -31.8698 -58.0925 15.8484
LeftShoulder1  0.360794 2.517 -30.4596
LeftArm  -6.81071 10.9956 -42.3786
LeftForeArm  30.1901 -10.9833 -6.64764
LeftHand  0.0734353 8.61575 4.22262
RightShoulder  -1.00892 -6.18033 31.1251
RightArm  11.9533 2.16438 44.4788
RightForeArm  10.1336 2.66238 6.91673
RightHand  -0.256465 6.25747 -2.88969
LeftUpLeg  -7.04869 17.1592 3.61585
LeftLeg  58.4645 -6.59629 -10.9301
LeftFoot  4.46475 1.79594 -13.0862
LeftToes  1.648e-009 -9.21574e-011 2.55256e-011
